<svg height="512pt" viewBox="0 0 512.0119 512" width="512pt" xmlns="http://www.w3.org/2000/svg"><path d="m424.621094 114.160156c-2.152344-2.976562-5.945313-4.277344-9.472656-3.246094l-15.1875 4.523438-2.902344 4.863281c-.746094 1.222657-.667969 2.773438.203125 3.910157.871093 1.132812 2.351562 1.617187 3.722656 1.210937l25.941406-7.765625c-.683593-1.195312-1.535156-2.386719-2.304687-3.496094zm0 0" fill="#e3e7f2"/><path d="m458.753906 114.160156c-2.152344-2.976562-5.945312-4.277344-9.472656-3.246094l-22.355469 6.742188-25.941406 7.765625c-1.371094.40625-2.851563-.078125-3.722656-1.210937-.871094-1.136719-.949219-2.6875-.203125-3.910157l2.902344-4.863281 20.820312-34.558594c2.15625-3.527344 1.472656-8.09375-1.621094-10.835937-27.90625-24.585938-61.019531-42.527344-96.855468-52.480469-5.800782-1.621094-11.605469-2.988281-17.578126-4.097656-16.089843-3.296875-32.472656-4.957032-48.894531-4.949219-5.886719 0-11.691406.171875-17.410156.683594-52.839844 3.523437-103.117187 24.09375-143.273437 58.625l-12.628907 11.519531c-36.238281 35.4375-60.699219 81.167969-70.058593 130.984375-.59375 3.203125.65625 6.46875 3.242187 8.449219l19.96875 15.105468c1.566406 1.175782 2.476563 3.03125 2.441406 4.992188-.03125 1.957031-1.003906 3.785156-2.613281 4.90625l-23.296875 16.640625c-2.40625 1.6875-3.789063 4.484375-3.667969 7.421875 4.277344 89.894531 57.0625 170.363281 137.8125 210.089844 5.546875 2.816406 11.265625 5.378906 17.066406 7.679687 24.074219 9.699219 49.539063 15.488281 75.4375 17.152344 5.886719.511719 11.859376.683594 17.917969.683594 37.183594-.105469 73.871094-8.5625 107.351563-24.746094 5.203125-2.558594 10.410156-5.292969 15.445312-8.277344 60.125-34.65625 102.933594-92.964843 117.992188-160.707031 15.058594-67.746094.980468-138.699219-38.804688-195.558594zm-251.136718 176.722656c-3.441407-4.605468-6.117188-9.734374-7.933594-15.1875-2.273438-6.324218-3.425782-12.992187-3.414063-19.710937-.042969-26.4375 17.324219-49.742187 42.664063-57.261719.085937 0 .257812-.085937.34375-.085937 16.585937-4.839844 34.460937-2.253907 48.992187 7.09375 14.535157 9.34375 24.304688 24.53125 26.785157 41.632812.484374 2.847657.710937 5.730469.679687 8.621094.035156 2.859375-.191406 5.714844-.679687 8.53125-3.421876 24.105469-21.15625 43.710937-44.804688 49.511719-23.644531 5.804687-48.441406-3.359375-62.632812-23.144532zm0 0" fill="#a4c2f7"/><path d="m426.925781 117.65625-25.941406 7.765625c-1.371094.40625-2.851563-.078125-3.722656-1.210937-.871094-1.136719-.949219-2.6875-.203125-3.910157l2.902344-4.863281-33.109376 9.984375c-1.375.40625-2.851562-.078125-3.722656-1.210937-.871094-1.136719-.953125-2.6875-.203125-3.910157l23.722657-39.421875c2.15625-3.527344 1.472656-8.09375-1.621094-10.835937-27.90625-24.585938-61.019532-42.527344-96.855469-52.480469-5.800781-1.621094-11.605469-2.988281-17.578125-4.097656-10.605469-2.203125-21.355469-3.628906-32.171875-4.265625-52.839844 3.523437-103.117187 24.09375-143.273437 58.625l-12.628907 11.519531c-36.238281 35.4375-60.699219 81.167969-70.058593 130.984375-.59375 3.203125.65625 6.46875 3.242187 8.449219l19.96875 15.105468c1.566406 1.175782 2.476563 3.03125 2.441406 4.992188-.03125 1.957031-1.003906 3.785156-2.613281 4.90625l-23.296875 16.640625c-2.40625 1.6875-3.789063 4.484375-3.667969 7.421875 4.277344 89.894531 57.0625 170.363281 137.8125 210.089844 5.546875 2.816406 11.265625 5.378906 17.066406 7.679687 24.074219 9.699219 49.539063 15.488281 75.4375 17.152344 31.644532-2.058594 62.59375-10.230469 91.132813-24.0625 5.207031-2.558594 10.414063-5.292969 15.445313-8.277344 59.519531-34.261719 102.105468-91.730469 117.5625-158.640625 15.457031-66.910156 2.390624-137.234375-36.066407-194.128906zm-111.871093 146.859375c-3.421876 24.105469-21.15625 43.710937-44.804688 49.511719-23.644531 5.804687-48.441406-3.359375-62.632812-23.144532-3.441407-4.605468-6.117188-9.734374-7.933594-15.1875-2.273438-6.324218-3.425782-12.992187-3.414063-19.710937-.042969-26.4375 17.324219-49.742187 42.664063-57.261719.085937 0 .257812-.085937.34375-.085937 16.585937-4.839844 34.460937-2.253907 48.992187 7.09375 14.535157 9.34375 24.304688 24.53125 26.785157 41.632812.484374 2.847657.710937 5.730469.679687 8.621094.035156 2.859375-.191406 5.714844-.679687 8.53125zm0 0" fill="#e3e7f2"/><path d="m146.347656 477.933594c5.546875 2.816406 11.265625 5.378906 17.066406 7.679687 24.074219 9.699219 49.539063 15.488281 75.4375 17.152344 5.886719.511719 11.859376.683594 17.917969.683594 4.148438 0 8.253907-.1875 12.339844-.402344-1.554687-.09375-3.113281-.144531-4.660156-.28125-25.898438-1.664063-51.363281-7.453125-75.433594-17.152344-5.804687-2.300781-11.519531-4.863281-17.066406-7.679687-80.75-39.726563-133.535157-120.195313-137.8125-210.089844-.125-2.9375 1.257812-5.734375 3.667969-7.421875l23.296874-16.640625c1.605469-1.121094 2.578126-2.949219 2.613282-4.90625.03125-1.960938-.875-3.816406-2.445313-4.992188l-19.964843-15.105468c-2.585938-1.980469-3.839844-5.246094-3.242188-8.449219 9.359375-49.816406 33.816406-95.546875 70.058594-130.984375l12.628906-11.519531c40.15625-34.53125 90.429688-55.101563 143.273438-58.625 1.65625-.144531 3.335937-.214844 5.007812-.308594-4.367188-.238281-8.761719-.375-13.199219-.375-5.886719 0-11.691406.171875-17.410156.683594-52.839844 3.523437-103.117187 24.09375-143.273437 58.625l-12.628907 11.519531c-36.238281 35.4375-60.699219 81.167969-70.058593 130.984375-.59375 3.203125.65625 6.46875 3.242187 8.449219l19.96875 15.105468c1.566406 1.175782 2.476563 3.03125 2.441406 4.992188-.03125 1.957031-1.003906 3.785156-2.613281 4.90625l-23.296875 16.640625c-2.40625 1.6875-3.789063 4.484375-3.667969 7.421875 4.277344 89.894531 57.0625 170.363281 137.8125 210.089844zm0 0" fill="#fff"/><g fill="#428dff"><path d="m256.003906 324.25c-37.703125 0-68.269531-30.566406-68.269531-68.265625 0-37.703125 30.566406-68.269531 68.269531-68.269531 37.699219 0 68.265625 30.566406 68.265625 68.269531-.042969 37.683594-30.582031 68.222656-68.265625 68.265625zm0-119.46875c-28.277344 0-51.203125 22.925781-51.203125 51.203125 0 28.273437 22.925781 51.199219 51.203125 51.199219 28.273438 0 51.199219-22.925782 51.199219-51.199219-.027344-28.265625-22.9375-51.171875-51.199219-51.203125zm0 0"/><path d="m452.269531 298.648438h-24.398437c-14.269532.015624-27.601563-7.121094-35.507813-19.003907l-10.171875-15.265625c-6.175781-9.261718-17.632812-13.472656-28.335937-10.410156l-35.773438 10.238281c-2.960937.945313-6.203125.199219-8.457031-1.9375-2.257812-2.136719-3.171875-5.335937-2.386719-8.34375.78125-3.007812 3.136719-5.351562 6.152344-6.117187l35.769531-10.242188c17.84375-5.140625 36.964844 1.882813 47.230469 17.359375l10.183594 15.265625c4.742187 7.125 12.738281 11.402344 21.296875 11.390625h24.398437c4.710938 0 8.53125 3.820313 8.53125 8.535157 0 4.710937-3.820312 8.53125-8.53125 8.53125zm0 0"/><path d="m359.511719 252.101562c-.792969 0-1.585938-.113281-2.347657-.335937-4.53125-1.292969-7.15625-6.015625-5.863281-10.546875l15.96875-55.847656c.765625-3.015625 3.109375-5.371094 6.117188-6.152344 3.007812-.785156 6.203125.128906 8.34375 2.386719 2.136719 2.253906 2.882812 5.496093 1.9375 8.457031l-15.957031 55.851562c-1.046876 3.660157-4.390626 6.183594-8.199219 6.1875zm0 0"/><path d="m372.054688 483.082031c-2.261719-.003906-4.433594-.902343-6.03125-2.503906l-29.390626-29.363281c-4.789062-4.8125-11.304687-7.515625-18.097656-7.5h-23.109375c-17.078125.015625-32.523437-10.15625-39.253906-25.855469l-16.722656-39.046875c-1.324219-2.824219-1.007813-6.140625.832031-8.660156 1.839844-2.515625 4.902344-3.832032 7.992188-3.425782 3.09375.402344 5.71875 2.457032 6.851562 5.359376l16.75 39.050781c4.035156 9.417969 13.304688 15.523437 23.550781 15.511719h23.109375c11.324219-.03125 22.191406 4.46875 30.179688 12.492187l29.390625 29.363281c2.445312 2.441406 3.179687 6.113282 1.859375 9.308594-1.324219 3.191406-4.4375 5.269531-7.890625 5.269531zm0 0"/><path d="m330.550781 445.902344c-.71875 0-1.433593-.09375-2.125-.273438-4.566406-1.171875-7.316406-5.824218-6.144531-10.386718l7.757812-30.285157c2.503907-11.832031 11.105469-21.441406 22.585938-25.242187l11.519531-3.832032c4.476563-1.488281 9.3125.933594 10.804688 5.410157 1.488281 4.480469-.933594 9.316406-5.410157 10.804687l-11.519531 3.832032c-5.796875 1.933593-10.125 6.8125-11.351562 12.800781l-7.890625 30.71875c-.953125 3.773437-4.335938 6.429687-8.226563 6.453125zm0 0"/><path d="m343.75 404.242188c-3.9375-.007813-7.363281-2.707032-8.285156-6.539063l-11.09375-45.847656c-1.109375-4.582031 1.707031-9.191407 6.289062-10.300781 4.582032-1.105469 9.191406 1.707031 10.300782 6.289062l11.09375 45.859375c.53125 2.199219.167968 4.519531-1.011719 6.453125-1.179688 1.929688-3.078125 3.3125-5.277344 3.84375-.660156.160156-1.335937.238281-2.015625.242188zm0 0"/><path d="m110.933594 324.25c-3.996094.046875-7.492188-2.683594-8.410156-6.574219-.914063-3.890625.992187-7.898437 4.589843-9.640625l22.835938-11.417968c9.109375-4.546876 19.546875-5.691407 29.429687-3.222657l3.132813.773438c8.726562 2.15625 17.945312-.394531 24.320312-6.730469l9.785157-9.789062c2.144531-2.21875 5.316406-3.109376 8.300781-2.328126s5.3125 3.113282 6.09375 6.097657c.78125 2.980469-.109375 6.15625-2.328125 8.296875l-9.777344 9.789062c-10.621094 10.558594-25.984375 14.816406-40.527344 11.230469l-3.128906-.785156c-5.929688-1.488281-12.191406-.800781-17.65625 1.933593l-22.84375 11.511719c-1.1875.578125-2.496094.871094-3.816406.855469zm0 0"/><path d="m145.070312 309.460938c-3.3125-.003907-6.320312-1.917969-7.722656-4.914063l-17.066406-36.414063c-1.808594-4.226562.0625-9.125 4.226562-11.078124 4.164063-1.949219 9.125-.25 11.21875 3.84375l17.066407 36.410156c1.992187 4.265625.15625 9.339844-4.105469 11.339844-1.132812.539062-2.367188.816406-3.617188.8125zm0 0"/><path d="m187.523438 162.117188c-3.25.015624-6.230469-1.8125-7.679688-4.71875l-6.539062-13.058594c-4.503907-9.007813-14.472657-13.894532-24.351563-11.945313-15.171875 3-30.695313-3.128906-39.722656-15.683593l-27.4375-38.402344c-1.804688-2.476563-2.140625-5.734375-.878907-8.53125 1.261719-2.792969 3.925782-4.695313 6.976563-4.984375 3.054687-.289063 6.027344 1.082031 7.789063 3.59375l27.433593 38.398437c5.117188 7.140625 13.9375 10.628906 22.554688 8.917969 17.398437-3.417969 34.941406 5.164063 42.921875 21l6.527344 13.066406c1.320312 2.636719 1.179687 5.769531-.363282 8.285157-1.546875 2.511718-4.28125 4.046874-7.230468 4.0625zm0 0"/><path d="m281.429688 136.515625c-3.230469 0-6.183594-1.824219-7.628907-4.714844-1.449219-2.894531-1.136719-6.351562.804688-8.9375l12.96875-17.222656c2.007812-2.679687 2.863281-6.042969 2.382812-9.355469s-2.257812-6.296875-4.941406-8.296875c-6.359375-4.777343-10.535156-11.90625-11.589844-19.785156-1.058593-7.882813 1.089844-15.859375 5.964844-22.140625l27.921875-35.839844c2.988281-3.328125 8.035156-3.785156 11.570312-1.050781 3.535157 2.734375 4.363282 7.734375 1.894532 11.460937l-27.917969 35.839844c-2.089844 2.671875-3.011719 6.074219-2.558594 9.433594.449219 3.363281 2.238281 6.398438 4.953125 8.425781 6.308594 4.714844 10.484375 11.746094 11.605469 19.542969 1.121094 7.792969-.90625 15.714844-5.628906 22.015625l-12.964844 17.210937c-1.613281 2.152344-4.144531 3.417969-6.835937 3.414063zm0 0"/><path d="m247.46875 204.78125c-3.910156-.003906-7.320312-2.664062-8.269531-6.457031l-8.53125-34.132813c-1.109375-4.558594 1.667969-9.15625 6.21875-10.292968 4.546875-1.140626 9.164062 1.605468 10.335937 6.144531l8.53125 34.132812c1.144532 4.570313-1.632812 9.207031-6.203125 10.351563-.679687.171875-1.378906.257812-2.082031.253906zm0 0"/><path d="m136.28125 170.648438c-4.714844 0-8.535156-3.820313-8.535156-8.53125v-37.878907c0-3.050781 1.625-5.867187 4.265625-7.390625 2.640625-1.527344 5.894531-1.527344 8.535156 0 2.640625 1.523438 4.265625 4.339844 4.265625 7.390625v37.878907c0 4.710937-3.820312 8.53125-8.53125 8.53125zm0 0"/><path d="m155.835938 490.316406c-4.050782-.003906-7.542969-2.855468-8.351563-6.828125l-7.449219-37.210937c-2.8125-13.992188 1.570313-28.460938 11.671875-38.539063l4.15625-4.15625c3.335938-3.328125 8.742188-3.320312 12.070313.015625 3.328125 3.335938 3.324218 8.738282-.011719 12.070313l-4.15625 4.144531c-6.058594 6.046875-8.6875 14.726562-6.996094 23.117188l7.449219 37.222656c.917969 4.621094-2.078125 9.113281-6.699219 10.035156-.554687.101562-1.117187.144531-1.683593.128906zm0 0"/></g><path d="m17.070312 267.453125c1.894532 35.777344 11.714844 70.6875 28.746094 102.210937l3.753906 7.125 4.398438 6.742188c3 4.445312 5.691406 9.113281 8.933594 13.394531 6.40625 8.621094 13.371094 16.808594 20.847656 24.519531 7.4375 7.746094 15.339844 15.03125 23.660156 21.820313 8.5 6.558594 17.394532 12.589844 26.632813 18.054687 37.15625 22.007813 79.550781 33.613282 122.734375 33.59375l.070312 17.070313c-46.273437.023437-91.703125-12.40625-131.515625-35.988281-9.902343-5.855469-19.429687-12.324219-28.527343-19.359375-8.917969-7.261719-17.386719-15.0625-25.351563-23.355469-8.007813-8.257812-15.464844-17.027344-22.324219-26.257812-3.464844-4.582032-6.375-9.566407-9.574218-14.335938l-4.703126-7.238281-4.035156-7.628907c-18.261718-33.785156-28.785156-71.207031-30.81249975-109.558593zm0 0" fill="#fff"/><path d="m14.414062 310.066406c4.535157-.992187 7.5-5.359375 6.742188-9.941406-2.019531-10.796875-3.386719-21.710938-4.085938-32.671875l-17.06640575.808594c.74609375 11.738281 2.20312475 23.421875 4.35937475 34.988281.386719 2.257812 1.675781 4.261719 3.574219 5.546875 1.894531 1.289063 4.234375 1.746094 6.476562 1.269531zm0 0" fill="#428dff"/><path d="m256.855469 511.984375-.066407-17.070313c-43.1875.019532-85.582031-11.585937-122.738281-33.59375-9.238281-5.464843-18.132812-11.496093-26.632812-18.054687-8.324219-6.789063-16.226563-14.074219-23.667969-21.820313-7.476562-7.710937-14.441406-15.898437-20.847656-24.519531-3.242188-4.265625-5.972656-8.949219-8.933594-13.394531l-4.398438-6.742188-3.753906-7.125-3.820312-7.296874c-2.273438-4.015626-7.214844-5.667969-11.445313-3.824219-2.097656.933593-3.707031 2.703125-4.4375 4.878906-.726562 2.175781-.507812 4.558594.605469 6.566406l4.097656 7.816407 4.035156 7.628906 4.703126 7.234375c3.199218 4.773437 6.109374 9.753906 9.574218 14.335937 6.859375 9.238282 14.316406 18.015625 22.324219 26.277344 7.964844 8.292969 16.433594 16.09375 25.351563 23.355469 9.097656 7.035156 18.625 13.503906 28.527343 19.359375 39.816407 23.582031 85.246094 36.011718 131.523438 35.988281zm0 0" fill="#428dff"/><path d="m29.3125 332.007812c-.660156-2.089843-2.109375-3.835937-4.035156-4.875l-1.511719-.589843c-.554687-.164063-1.125-.257813-1.703125-.28125-.539062-.074219-1.085938-.074219-1.625 0-.574219.074219-1.144531.183593-1.703125.324219-2.183594.664062-4.023437 2.15625-5.121094 4.15625-.492187 1.039062-.78125 2.164062-.855469 3.3125-.398437 3.539062 1.460938 6.949218 4.652344 8.53125 1.054688.449218 2.183594.691406 3.328125.71875 1.121094.050781 2.242188-.117188 3.300781-.496094 2.070313-.816406 3.769532-2.367188 4.761719-4.359375.859375-2.039063 1.039063-4.296875.511719-6.441407zm0 0" fill="#428dff"/><path d="m256.855469 511.984375c-4.710938 0-8.535157-3.820313-8.535157-8.535156 0-4.710938 3.824219-8.535157 8.535157-8.535157 88.921875-.296874 170.320312-49.960937 211.257812-128.902343 40.941407-78.9375 34.644531-174.082031-16.339843-246.9375l-48.316407 14.507812c-4.742187 1.414063-9.867187-.226562-12.902343-4.132812-3.039063-3.90625-3.367188-9.277344-.828126-13.523438l23.714844-39.476562c-64.53125-56.652344-154.492187-74.332031-235.667968-46.324219-81.171876 28.007812-141.085938 97.40625-156.949219 181.800781l20.011719 15.136719c3.714843 2.824219 5.871093 7.246094 5.808593 11.910156-.066406 4.667969-2.347656 9.027344-6.144531 11.746094l-23.363281 16.671875c.152343 3.058594-1.335938 5.964844-3.910157 7.625-2.570312 1.664063-5.835937 1.824219-8.558593.429687-2.722657-1.398437-4.496094-4.140624-4.6484378-7.199218-.2773432-5.828125 2.4414068-11.394532 7.2109378-14.753906l20.710937-14.789063-17.359375-13.132813c-5.15625-3.921874-7.675781-10.402343-6.527343-16.777343 17.019531-90.414063 81.214843-164.757813 168.183593-194.769531 86.96875-30.011719 183.351563-11.082032 252.511719 49.59375 6.179688 5.464843 7.566406 14.566406 3.292969 21.621093l-16.929688 28.238281 35.710938-10.710937c7.050781-2.144531 14.683593.476563 18.925781 6.503906 54.644531 78.070313 61.390625 180.03125 17.511719 264.621094-43.875 84.585937-131.113281 137.796875-226.40625 138.09375zm0 0" fill="#428dff"/></svg>