<svg height="126pt" viewBox="0 0 512.00032 512" width="130pt" xmlns="http://www.w3.org/2000/svg"><path d="m435.199219 166.398438-9.386719 46.933593-11.945312 59.734375-.855469 4.265625-11.945313 59.734375h-290.132812l-11.945313-59.734375-.855469-4.265625-11.945312-59.734375-9.386719-46.933593zm0 0" fill="#a4c2f7"/><path d="m426.667969 213.332031-12.03125 59.734375h-317.269531l-12.035157-59.734375zm0 0" fill="#a4c2f7"/><path d="m409.601562 166.398438-9.386718 46.933593-11.949219 59.734375-.851563 4.265625-11.945312 59.734375h-264.535156l-11.945313-59.734375-.855469-4.265625h-.765624l-12.035157-59.734375h.855469l-9.386719-46.933593zm0 0" fill="#fff"/><path d="m401.066406 213.332031-12.03125 59.734375h-291.667968l-12.035157-59.734375zm0 0" fill="#d4e1f4"/><path d="m110.933594 337.066406h-42.667969l-34.132813-170.667968h42.667969l10.238281 51.203124 11.949219 59.730469zm0 0" fill="#d4e1f4"/><path d="m477.867188 166.398438-34.132813 170.667968h-42.667969l11.945313-59.734375 11.949219-59.730469 10.238281-51.203124zm0 0" fill="#a4c2f7"/><path d="m17.066406 119.46875h477.867188c4.714844 0 8.535156 3.820312 8.535156 8.53125v25.601562c0 4.710938-3.820312 8.53125-8.535156 8.53125h-477.867188c-4.710937 0-8.53125-3.820312-8.53125-8.53125v-25.601562c0-4.710938 3.820313-8.53125 8.53125-8.53125zm0 0" fill="#7facfa"/><path d="m165.394531 68.265625h-57.71875c-3.234375.003906-6.1875 1.828125-7.628906 4.71875l-17.070313 34.132813c-1.320312 2.644531-1.179687 5.785156.375 8.300781 1.554688 2.515625 4.300782 4.046875 7.253907 4.050781h91.855469c2.957031-.003906 5.699218-1.535156 7.253906-4.050781 1.554687-2.515625 1.695312-5.65625.375-8.300781l-17.066406-34.132813c-1.445313-2.890625-4.398438-4.714844-7.628907-4.71875zm0 0" fill="#e3e7f2"/><path d="m421.375 119.46875h-91.816406c-2.972656.019531-5.742188-1.507812-7.3125-4.035156-1.566406-2.527344-1.707032-5.683594-.367188-8.339844l17.066406-34.132812c1.457032-2.898438 4.433594-4.714844 7.679688-4.695313h57.683594c3.246094-.019531 6.222656 1.796875 7.679687 4.695313l17.066407 34.132812c1.339843 2.65625 1.199218 5.8125-.367188 8.339844-1.570312 2.527344-4.339844 4.054687-7.3125 4.035156zm0 0" fill="#d4e1f4"/><path d="m284.859375 68.265625h-57.71875c-3.230469.003906-6.183594 1.828125-7.628906 4.71875l-17.066407 34.132813c-1.320312 2.644531-1.179687 5.785156.375 8.300781 1.550782 2.515625 4.296876 4.046875 7.253907 4.050781h91.851562c2.957031-.003906 5.703125-1.535156 7.257813-4.050781 1.550781-2.515625 1.695312-5.65625.371094-8.300781l-17.066407-34.132813c-1.445312-2.890625-4.398437-4.714844-7.628906-4.71875zm0 0" fill="#d4e1f4"/><path d="m228.394531 8.535156h-57.726562c-3.417969.140625-6.417969 2.304688-7.628907 5.503906l-17.066406 39.824219c-1.464844 2.890625-1.4375 6.3125.082032 9.179688 1.515624 2.863281 4.332031 4.8125 7.546874 5.222656h91.859376c3.214843-.414063 6.027343-2.359375 7.546874-5.222656 1.519532-2.863281 1.550782-6.289063.089844-9.179688l-17.066406-39.824219c-1.210938-3.203124-4.21875-5.367187-7.636719-5.503906zm0 0" fill="#d4e1f4"/><path d="m358.398438 68.265625h-91.902344c-3.210938-.425781-6.011719-2.382813-7.523438-5.246094-1.507812-2.867187-1.535156-6.285156-.070312-9.175781l17.066406-39.847656c1.21875-3.171875 4.203125-5.316406 7.59375-5.460938h57.769531c3.398438.128906 6.390625 2.28125 7.597657 5.460938l17.066406 39.847656c1.484375 2.886719 1.464844 6.316406-.046875 9.1875s-4.328125 4.828125-7.550781 5.234375zm0 0" fill="#d4e1f4"/><path d="m393.8125 119.46875h-64.253906c-2.972656.019531-5.742188-1.507812-7.3125-4.035156-1.566406-2.527344-1.707032-5.683594-.367188-8.339844l17.066406-34.132812c1.457032-2.898438 4.433594-4.714844 7.679688-4.695313h30.121094c3.222656-.011719 6.167968 1.808594 7.59375 4.695313l17.070312 34.132812c1.328125 2.640625 1.199219 5.78125-.351562 8.304688-1.546875 2.519531-4.289063 4.058593-7.246094 4.070312zm0 0" fill="#e3e7f2"/><path d="m330.835938 68.265625h-64.339844c-3.210938-.425781-6.011719-2.382813-7.523438-5.246094-1.507812-2.867187-1.535156-6.285156-.070312-9.175781l17.066406-39.847656c1.21875-3.171875 4.203125-5.316406 7.59375-5.460938h30.207031c3.394531.144532 6.375 2.289063 7.597657 5.460938l17.066406 39.847656c1.460937 2.890625 1.433594 6.308594-.074219 9.175781-1.507813 2.863281-4.3125 4.820313-7.523437 5.246094zm0 0" fill="#e3e7f2"/><path d="m51.199219 332.800781h409.601562c4.710938 0 8.53125 3.820313 8.53125 8.53125v51.203125c0 4.710938-3.820312 8.53125-8.53125 8.53125h-409.601562c-4.710938 0-8.53125-3.820312-8.53125-8.53125v-51.203125c0-4.710937 3.820312-8.53125 8.53125-8.53125zm0 0" fill="#7facfa"/><path d="m42.667969 460.800781h-17.066407c-4.527343-.023437-8.871093 1.792969-12.035156 5.035157-3.238281 3.160156-5.058594 7.503906-5.03125 12.03125.027344 9.414062 7.652344 17.039062 17.066406 17.066406h460.796876c9.398437-.070313 17-7.671875 17.070312-17.066406-.03125-9.414063-7.65625-17.039063-17.070312-17.066407zm0 0" fill="#d4e1f4"/><path d="m17.066406 119.46875h452.265625c4.714844 0 8.535157 3.820312 8.535157 8.53125v25.601562c0 4.710938-3.820313 8.53125-8.535157 8.53125h-452.265625c-4.710937 0-8.53125-3.820312-8.53125-8.53125v-25.601562c0-4.710938 3.820313-8.53125 8.53125-8.53125zm0 0" fill="#a4c2f7"/><path d="m51.199219 332.800781h384c4.714843 0 8.535156 3.820313 8.535156 8.53125v51.203125c0 4.710938-3.820313 8.53125-8.535156 8.53125h-384c-4.710938 0-8.53125-3.820312-8.53125-8.53125v-51.203125c0-4.710937 3.820312-8.53125 8.53125-8.53125zm0 0" fill="#a4c2f7"/><path d="m443.734375 418.132812c.027344 12.617188-4.660156 24.792969-13.140625 34.132813l-24.75 18.6875-19.367188-4.691406-22.1875-5.460938c-16.875-11.132812-25.597656-31.167969-22.257812-51.105469s18.121094-36.03125 37.703125-41.054687c4.171875-1.132813 8.476563-1.707031 12.800781-1.707031 28.277344 0 51.199219 22.921875 51.199219 51.199218zm0 0" fill="#a4c2f7"/><path d="m418.132812 418.132812c.027344 12.617188-4.660156 24.792969-13.140624 34.132813l-18.515626 13.996094-22.1875-5.460938c-16.875-11.132812-25.597656-31.167969-22.257812-51.105469s18.121094-36.03125 37.703125-41.054687c22.574219 5.828125 38.363281 26.175781 38.398437 49.492187zm0 0" fill="#d4e1f4"/><path d="m170.667969 418.132812c.011719 17.179688-8.613281 33.210938-22.957031 42.667969l-36.777344 17.066407-8.960938-7.765626-20.5625-17.835937c-8.484375-9.339844-13.171875-21.515625-13.144531-34.132813.039063-23.316406 15.824219-43.664062 38.402344-49.492187 4.171875-1.132813 8.476562-1.707031 12.800781-1.707031 28.273438 0 51.199219 22.921875 51.199219 51.199218zm0 0" fill="#a4c2f7"/><path d="m145.066406 418.132812c.015625 17.179688-8.613281 33.210938-22.953125 42.667969l-20.140625 9.300781-20.5625-17.835937c-8.484375-9.339844-13.171875-21.515625-13.144531-34.132813.039063-23.316406 15.824219-43.664062 38.402344-49.492187 22.574219 5.828125 38.363281 26.175781 38.398437 49.492187zm0 0" fill="#d4e1f4"/><path d="m51.199219 452.265625h51.199219c4.714843 0 8.535156 3.820313 8.535156 8.535156v34.132813c0 4.710937-3.820313 8.535156-8.535156 8.535156h-51.199219c-4.710938 0-8.53125-3.824219-8.53125-8.535156v-34.132813c0-4.714843 3.820312-8.535156 8.53125-8.535156zm0 0" fill="#7facfa"/><path d="m170.667969 452.265625h51.199219c4.710937 0 8.53125 3.820313 8.53125 8.535156v34.132813c0 4.710937-3.820313 8.535156-8.53125 8.535156h-51.199219c-4.714844 0-8.535157-3.824219-8.535157-8.535156v-34.132813c0-4.714843 3.820313-8.535156 8.535157-8.535156zm0 0" fill="#7facfa"/><path d="m51.199219 452.265625h25.601562c4.710938 0 8.53125 3.820313 8.53125 8.535156v34.132813c0 4.710937-3.820312 8.535156-8.53125 8.535156h-25.601562c-4.710938 0-8.53125-3.824219-8.53125-8.535156v-34.132813c0-4.714843 3.820312-8.535156 8.53125-8.535156zm0 0" fill="#a4c2f7"/><path d="m170.667969 452.265625h25.597656c4.714844 0 8.535156 3.820313 8.535156 8.535156v34.132813c0 4.710937-3.820312 8.535156-8.535156 8.535156h-25.597656c-4.714844 0-8.535157-3.824219-8.535157-8.535156v-34.132813c0-4.714843 3.820313-8.535156 8.535157-8.535156zm0 0" fill="#a4c2f7"/><path d="m290.132812 452.265625h51.199219c4.714844 0 8.535157 3.820313 8.535157 8.535156v34.132813c0 4.710937-3.820313 8.535156-8.535157 8.535156h-51.199219c-4.710937 0-8.53125-3.824219-8.53125-8.535156v-34.132813c0-4.714843 3.820313-8.535156 8.53125-8.535156zm0 0" fill="#7facfa"/><path d="m290.132812 452.265625h25.601563c4.710937 0 8.53125 3.820313 8.53125 8.535156v34.132813c0 4.710937-3.820313 8.535156-8.53125 8.535156h-25.601563c-4.710937 0-8.53125-3.824219-8.53125-8.535156v-34.132813c0-4.714843 3.820313-8.535156 8.53125-8.535156zm0 0" fill="#a4c2f7"/><path d="m409.601562 452.265625h51.199219c4.710938 0 8.53125 3.820313 8.53125 8.535156v34.132813c0 4.710937-3.820312 8.535156-8.53125 8.535156h-51.199219c-4.714843 0-8.535156-3.824219-8.535156-8.535156v-34.132813c0-4.714843 3.820313-8.535156 8.535156-8.535156zm0 0" fill="#7facfa"/><path d="m409.601562 452.265625h25.597657c4.714843 0 8.535156 3.820313 8.535156 8.535156v34.132813c0 4.710937-3.820313 8.535156-8.535156 8.535156h-25.597657c-4.714843 0-8.535156-3.824219-8.535156-8.535156v-34.132813c0-4.714843 3.820313-8.535156 8.535156-8.535156zm0 0" fill="#a4c2f7"/><path d="m119.46875 426.667969c-2.265625-.019531-4.433594-.902344-6.058594-2.476563-1.558594-1.636718-2.445312-3.800781-2.476562-6.058594.019531-.570312.074218-1.140624.171875-1.707031.089843-.535156.265625-1.050781.511719-1.535156.1875-.542969.445312-1.058594.765624-1.535156l1.027344-1.28125 1.277344-1.023438c.476562-.324219.992188-.582031 1.535156-.769531.484375-.246094 1.003906-.417969 1.539063-.511719 2.804687-.515625 5.691406.339844 7.765625 2.304688 2.066406 1.996093 2.976562 4.910156 2.40625 7.726562-.570313 2.820313-2.542969 5.148438-5.222656 6.183594-1.027344.4375-2.128907.667969-3.242188.683594zm0 0" fill="#428dff"/><path d="m392.535156 426.667969c-2.265625-.019531-4.433594-.902344-6.058594-2.476563-1.558593-1.636718-2.441406-3.800781-2.476562-6.058594.019531-.570312.074219-1.140624.171875-1.707031.09375-.535156.265625-1.050781.511719-1.535156.1875-.542969.445312-1.058594.765625-1.535156l1.027343-1.28125 1.277344-1.023438c.476563-.324219.992188-.582031 1.535156-.769531.484376-.246094 1.003907-.417969 1.539063-.511719 2.808594-.515625 5.691406.339844 7.765625 2.304688 2.066406 1.996093 2.976562 4.910156 2.40625 7.726562-.570312 2.820313-2.539062 5.148438-5.222656 6.183594-1.027344.4375-2.128906.667969-3.242188.683594zm0 0" fill="#428dff"/><g fill="#fff"><path d="m42.667969 153.601562v-25.601562c0-4.710938 3.820312-8.53125 8.53125-8.53125h-34.132813c-4.710937 0-8.53125 3.820312-8.53125 8.53125v25.601562c0 4.710938 3.820313 8.53125 8.53125 8.53125h34.132813c-4.710938 0-8.53125-3.820312-8.53125-8.53125zm65.023437-85.335937c-3.246094-.019531-6.21875 1.796875-7.679687 4.695313l-17.066407 34.132812c-1.339843 2.65625-1.199218 5.8125.371094 8.339844 1.566406 2.527344 4.335938 4.054687 7.308594 4.035156h34.132812c-2.972656.019531-5.742187-1.507812-7.308593-4.035156-1.570313-2.527344-1.710938-5.683594-.371094-8.339844l17.066406-34.132812c1.460938-2.898438 4.4375-4.714844 7.679688-4.695313zm62.976563-59.730469c-3.398438.128906-6.390625 2.28125-7.59375 5.460938l-17.070313 39.847656c-1.484375 2.886719-1.464844 6.316406.046875 9.1875s4.328125 4.828125 7.550781 5.234375h34.132813c-3.21875-.417969-6.035156-2.367187-7.558594-5.230469-1.527343-2.863281-1.570312-6.285156-.121093-9.191406l17.066406-39.847656c1.242187-3.191406 4.257812-5.335938 7.679687-5.460938zm0 0"/><path d="m59.734375 460.800781h17.066406c.007813-3.351562 1.976563-6.390625 5.035157-7.765625 1.09375-.515625 2.289062-.777344 3.496093-.769531h30.210938c-8.484375-9.339844-13.171875-21.515625-13.144531-34.132813 0-5.8125.980468-11.582031 2.902343-17.066406h-19.96875c-4.710937 0-8.53125-3.820312-8.53125-8.53125v-51.203125c0-4.710937 3.820313-8.53125 8.53125-8.53125h16.214844l-33.28125-166.402343h-34.132813l33.28125 166.402343h-16.214843c-4.710938 0-8.53125 3.820313-8.53125 8.53125v51.203125c0 4.710938 3.820312 8.53125 8.53125 8.53125h19.96875c-1.921875 5.484375-2.902344 11.253906-2.902344 17.066406-.027344 12.617188 4.660156 24.792969 13.144531 34.132813h-30.210937c-4.710938 0-8.53125 3.820313-8.53125 8.535156h-17.066407c-4.527343-.023437-8.871093 1.792969-12.035156 5.035157-3.238281 3.160156-5.058594 7.503906-5.03125 12.03125.027344 9.414062 7.652344 17.039062 17.066406 17.066406h17.066407c0 4.710937 3.820312 8.535156 8.53125 8.535156h34.132812c-4.710937 0-8.53125-3.824219-8.53125-8.535156h-17.066406c-9.414063-.027344-17.039063-7.652344-17.066406-17.066406.070312-9.398438 7.667969-16.996094 17.066406-17.066407zm0 0"/><path d="m110.933594 494.933594c0 4.710937-3.820313 8.535156-8.535156 8.535156h34.136718c4.710938 0 8.53125-3.824219 8.53125-8.535156zm0 0"/><path d="m42.503906 160.460938 21.753906 108.773437 12.378907 61.894531-16.742188 3.34375-12.371093-61.882812-21.761719-108.785156zm0 0"/></g><path d="m42.769531 236.203125c.949219.59375 2.003907 1.003906 3.105469 1.203125 1.097656.222656 2.226562.222656 3.320312 0 3.402344-.660156 6.070313-3.3125 6.746094-6.714844.675782-3.398437-.773437-6.871094-3.664062-8.78125l-1.460938-.75c-.527344-.230468-1.085937-.382812-1.65625-.453125-.519531-.152343-1.0625-.21875-1.605468-.195312-.570313.007812-1.140626.0625-1.703126.160156-2.210937.472656-4.160156 1.765625-5.453124 3.617187-.605469.949219-1.015626 2.003907-1.214844 3.105469-.648438 3.386719.753906 6.839844 3.585937 8.808594zm0 0" fill="#428dff"/><path d="m494.933594 110.933594h-56.542969c.035156-2.644532-.550781-5.257813-1.707031-7.636719l-17.066406-34.132813c-2.878907-5.804687-8.8125-9.460937-15.289063-9.429687h-28.964844c.242188-3.15625-.273437-6.324219-1.5-9.242187l-17.066406-39.816407c-2.554687-6.332031-8.636719-10.53125-15.464844-10.675781h-57.726562c-6.832031.140625-12.921875 4.339844-15.480469 10.675781l-12.125 28.296875-12.125-28.296875c-2.558594-6.335937-8.648438-10.535156-15.480469-10.675781h-57.726562c-6.828125.140625-12.914063 4.34375-15.472657 10.675781l-17.066406 39.816407c-1.222656 2.917968-1.734375 6.085937-1.492187 9.242187h-28.960938c-6.472656-.023437-12.390625 3.632813-15.269531 9.429687l-17.066406 34.132813c-1.152344 2.378906-1.738282 4.992187-1.707032 7.636719h-56.566406c-9.425781 0-17.066406 7.640625-17.066406 17.066406v25.601562c0 9.425782 7.640625 17.066407 17.066406 17.066407h10.070313l5.289062 26.605469c.5625 3.027343 2.707031 5.515624 5.617188 6.515624 2.910156 1.003907 6.136719.359376 8.4375-1.683593s3.328125-5.167969 2.679687-8.175781l-4.617187-23.261719h25.261719l30.71875 153.597656h-25.257813l-12.683594-63.394531c-.558593-3.023438-2.703125-5.515625-5.617187-6.515625-2.910156-1-6.132813-.355469-8.433594 1.6875-2.304688 2.042969-3.328125 5.164062-2.679688 8.175781l12.003907 60.046875h-6.65625c-9.425781 0-17.066407 7.640625-17.066407 17.066406v17.066407h-17.066406v-8.53125c0-4.714844-3.820312-8.535157-8.53125-8.535157-4.714844 0-8.535156 3.820313-8.535156 8.535157v34.132812c0 4.714844 3.820312 8.535156 8.535156 8.535156 4.710938 0 8.53125-3.820312 8.53125-8.535156v-8.53125h17.066406v17.066406c0 9.425782 7.640626 17.066406 17.066407 17.066406h9.21875c-.433594 2.824219-.660157 5.675782-.683594 8.53125 0 8.863282 1.988281 17.609376 5.820313 25.601563h-14.355469c-6.070313.015625-11.667969 3.269531-14.691407 8.53125h-10.90625c-6.757812-.046875-13.25 2.644531-17.988281 7.460937-4.898437 4.757813-7.6484372 11.308594-7.613281 18.140626 0 14.136718 11.460938 25.601562 25.601562 25.601562h10.90625c3.023438 5.261719 8.621094 8.511719 14.691407 8.53125h51.199219c6.070312-.019531 11.671874-3.269531 14.695312-8.53125h38.878906c3.023438 5.261719 8.625 8.511719 14.695313 8.53125h51.199219c6.070312-.019531 11.667968-3.269531 14.695312-8.53125h38.875c3.027344 5.261719 8.625 8.511719 14.695312 8.53125h51.199219c6.070313-.019531 11.671875-3.269531 14.695313-8.53125h38.878906c3.023438 5.261719 8.625 8.511719 14.695312 8.53125h51.199219c6.070313-.019531 11.667969-3.269531 14.695313-8.53125h10.902344c14.109374-.070312 25.53125-11.492188 25.601562-25.601562 0-14.140626-11.460938-25.601563-25.601562-25.601563h-10.902344c-3.027344-5.261719-8.625-8.515625-14.695313-8.53125h-14.355469c3.832032-7.992187 5.820313-16.738281 5.820313-25.601563-.023437-2.855468-.25-5.707031-.679687-8.53125h9.214843c9.425781 0 17.066407-7.640624 17.066407-17.066406v-17.066406h17.066406v8.53125c0 4.714844 3.820312 8.535156 8.535156 8.535156 4.710938 0 8.53125-3.820312 8.53125-8.535156v-34.132812c0-4.714844-3.820312-8.535157-8.53125-8.535157-4.714844 0-8.535156 3.820313-8.535156 8.535157v8.53125h-17.066406v-17.066407c0-9.425781-7.640626-17.066406-17.066407-17.066406h-6.65625l30.71875-153.597656h10.070313c9.425781 0 17.066406-7.640625 17.066406-17.066407v-25.601562c0-9.425781-7.640625-17.066406-17.066406-17.066406zm-73.539063 0h-91.855469l17.066407-34.132813h57.722656zm-225.128906-10.546875-11.792969-23.585938h23.585938zm30.875-23.585938h57.71875l17.066406 34.132813h-91.851562zm88.59375 23.585938-11.792969-23.585938h23.585938zm-48.992187-43.160157 16.863281-40.160156h57.726562l-.210937.332032 17.066406 39.828124c.535156 1.234376 0 2.421876.210938 2.507813h-11.945313l-60.75.101563c-.296875 0-.5625-.121094-.851563-.121094h-17.867187c-.507813-.730469-.601563-1.675782-.242187-2.488282zm-112.921876 0 16.847657-40.160156h57.71875l-.203125.332032 17.066406 39.828124c.527344 1.234376 0 2.421876.203125 2.507813h-18.3125c-.074219-.003906-.148437-.003906-.222656 0l-60.585938.09375c-.324219 0-.613281-.128906-.9375-.128906h-11.34375c-.496093-.730469-.585937-1.664063-.230469-2.472657zm-46.144531 19.574219h57.71875l17.066407 34.132813h-91.855469zm298.339844 187.734375h-300.03125l-8.535156-42.667968h317.101562zm11.949219-59.734375h-323.925782l-6.828124-34.132812h337.578124zm-308.566406 76.800781h293.203124l-8.53125 42.664063h-276.140624zm-32.597657 136.53125c-.0625-20.109374 13.921875-37.53125 33.570313-41.820312 19.644531-4.285156 39.621094 5.726562 47.9375 24.035156 8.320312 18.308594 2.730468 39.9375-13.421875 51.917969h-27.792969c-3.023438-5.261719-8.625-8.515625-14.695312-8.53125h-16.765626c-5.6875-7.328125-8.789062-16.328125-8.832031-25.601563zm315.734375 51.199219v17.066407h-34.136718v-17.066407zm-53.863281-25.597656h-48.539063c-6.070312.015625-11.667968 3.269531-14.695312 8.53125h-38.875c-3.027344-5.261719-8.625-8.515625-14.695312-8.53125h-48.539063c5.191406-10.578125 7-22.492187 5.191406-34.132813h154.964844c-1.8125 11.640626-.003906 23.554688 5.1875 34.132813zm-99.738281 25.597656h34.132812v17.066407h-34.132812zm-119.464844 0h34.132812v17.066407h-34.132812zm-102.402344 8.535157c-.007812-2.300782.9375-4.5 2.613282-6.074219 1.554687-1.59375 3.695312-2.480469 5.921874-2.460938h8.53125v17.066407h-8.53125c-4.714843 0-8.535156-3.820313-8.535156-8.53125zm34.132813 17.066406v-34.132813h51.199219v34.132813zm119.46875 0v-34.132813h51.199219v34.132813zm119.464843 0v-34.132813h51.199219v34.132813zm204.800782-17.066406c.007812 2.300781-.9375 4.5-2.609375 6.074218-1.558594 1.59375-3.699219 2.480469-5.925781 2.457032h-8.53125v-17.066407h8.53125c4.714843 0 8.535156 3.820313 8.535156 8.535157zm-34.132813 17.007812v.058594h-51.199219v-34.132813h51.199219zm-51.199219-51.140625c-6.070312.015625-11.671874 3.269531-14.695312 8.53125h-27.792969c-14.0625-10.269531-20.503906-28.03125-16.300781-44.925781 4.207031-16.898438 18.222656-29.566406 35.457031-32.050782 17.234375-2.480468 34.257813 5.71875 43.058594 20.742188s7.632813 33.882812-2.960937 47.703125zm51.199219-51.199219h-14.378906c-9.851563-20.84375-30.835937-34.132812-53.886719-34.132812-23.054687 0-44.039062 13.289062-53.890625 34.132812h-165.289062c-9.851563-20.84375-30.835938-34.132812-53.886719-34.132812-23.054688 0-44.039062 13.289062-53.890625 34.132812h-14.378906v-51.203125h409.601562zm-24.066406-68.269531h-25.257813l30.722657-153.597656h25.257812zm41.132813-170.664063h-460.800782v-25.601562h477.867188v25.601562zm0 0" fill="#428dff"/></svg>